<?xml version="1.0" encoding="UTF-8"?>
<svg width="96px" height="24px" viewBox="0 0 96 24" version="1.1" xmlns="http://www.w3.org/2000/svg" xmlns:xlink="http://www.w3.org/1999/xlink">
    <!-- Generator: Sketch 61.1 (89650) - https://sketch.com -->
    <title>Airbase_Logo_RGB-02</title>
    <desc>Created with Sketch.</desc>
    <g id="Page-1" stroke="none" stroke-width="1" fill="none" fill-rule="evenodd">
        <g id="5-Approval-&gt;-Signed-Out" transform="translate(-294.000000, -48.000000)" fill-rule="nonzero">
            <g id="Airbase_Logo_RGB-02" transform="translate(294.000000, 48.000000)">
                <g id="Group" transform="translate(30.953874, 0.285714)" fill="#212221">
                    <path d="M4.4137931,4.85714286 C5.28795343,4.85714286 6.00447828,4.95714286 6.57769816,5.15714286 C7.15091805,5.35714286 7.62382445,5.62857143 7.96775638,6 C8.31168831,6.37142857 8.55530676,6.81428571 8.71294223,7.34285714 C8.8562472,7.87142857 8.92789969,8.45714286 8.92789969,9.08571429 L8.92789969,15.1714286 C8.51231527,15.2571429 7.92476489,15.3714286 7.17957904,15.5 C6.43439319,15.6285714 5.51724138,15.6857143 4.45678459,15.6857143 C3.78325123,15.6857143 3.18137035,15.6285714 2.63681146,15.5142857 C2.09225258,15.4 1.61934617,15.2 1.23242275,14.9285714 C0.831168831,14.6571429 0.530228392,14.3142857 0.329601433,13.8714286 C0.114643977,13.4428571 0.0143304971,12.9142857 0.0143304971,12.2857143 C0.0143304971,11.6857143 0.128974474,11.1714286 0.372592924,10.7571429 C0.616211375,10.3428571 0.945812808,10 1.34706673,9.75714286 C1.74832064,9.51428571 2.22122705,9.32857143 2.75145544,9.21428571 C3.28168383,9.1 3.82624272,9.04285714 4.38513211,9.04285714 C4.77205553,9.04285714 5.10165696,9.05714286 5.4025974,9.08571429 C5.70353784,9.11428571 5.93282579,9.15714286 6.11912226,9.21428571 L6.11912226,8.94285714 C6.11912226,8.44285714 5.96148679,8.04285714 5.66054635,7.74285714 C5.35960591,7.44285714 4.82937752,7.28571429 4.08419167,7.28571429 C3.58262427,7.28571429 3.09538737,7.32857143 2.60815047,7.4 C2.12091357,7.47142857 1.70532915,7.57142857 1.34706673,7.7 L0.974473802,5.34285714 C1.14643977,5.28571429 1.36139722,5.22857143 1.61934617,5.17142857 C1.87729512,5.11428571 2.14957456,5.05714286 2.450515,5.01428571 C2.75145544,4.97142857 3.06672638,4.92857143 3.41065831,4.9 C3.74025974,4.88571429 4.06986117,4.85714286 4.4137931,4.85714286 Z M4.65741155,13.4285714 C4.9440215,13.4285714 5.21630094,13.4285714 5.48858039,13.4142857 C5.74652933,13.4 5.96148679,13.3857143 6.11912226,13.3571429 L6.11912226,11.1428571 C6.00447828,11.1142857 5.81818182,11.0857143 5.58889386,11.0571429 C5.34527541,11.0285714 5.13031796,11.0142857 4.9440215,11.0142857 C4.67174205,11.0142857 4.4137931,11.0285714 4.17017465,11.0571429 C3.9265562,11.0857143 3.71159875,11.1571429 3.52530228,11.2428571 C3.33900582,11.3285714 3.19570085,11.4571429 3.09538737,11.6142857 C2.99507389,11.7714286 2.9377519,11.9714286 2.9377519,12.2 C2.9377519,12.6571429 3.09538737,12.9714286 3.39632781,13.1571429 C3.69726825,13.3428571 4.11285266,13.4285714 4.65741155,13.4285714 Z" id="Shape"></path>
                    <path d="M14.2731751,2.15714286 C14.2731751,2.7 14.1012091,3.11428571 13.7572772,3.42857143 C13.4133453,3.74285714 12.9977609,3.88571429 12.5248545,3.88571429 C12.0519481,3.88571429 11.6363636,3.72857143 11.2924317,3.42857143 C10.9484998,3.11428571 10.7765338,2.7 10.7765338,2.15714286 C10.7765338,1.61428571 10.9484998,1.2 11.2924317,0.885714286 C11.6363636,0.571428571 12.0519481,0.428571429 12.5248545,0.428571429 C12.9977609,0.428571429 13.4133453,0.585714286 13.7572772,0.885714286 C14.1012091,1.18571429 14.2731751,1.61428571 14.2731751,2.15714286 Z M14.0008957,15.4714286 L11.0631438,15.4714286 L11.0631438,5.14285714 L14.0008957,5.14285714 L14.0008957,15.4714286 Z" id="Shape"></path>
                    <path d="M22.7711599,7.72857143 C22.5132109,7.65714286 22.19794,7.6 21.8396776,7.52857143 C21.4814151,7.45714286 21.1088222,7.41428571 20.6932378,7.41428571 C20.5069413,7.41428571 20.2919839,7.42857143 20.0340349,7.45714286 C19.776086,7.48571429 19.5897895,7.52857143 19.4464845,7.57142857 L19.4464845,15.4714286 L16.5087326,15.4714286 L16.5087326,5.68571429 C17.038961,5.5 17.6551724,5.32857143 18.3716973,5.17142857 C19.0882221,5.01428571 19.89073,4.92857143 20.7648903,4.92857143 C20.9225258,4.92857143 21.1088222,4.94285714 21.3381102,4.95714286 C21.5673981,4.97142857 21.7823556,5 22.0116435,5.04285714 C22.2409315,5.07142857 22.4558889,5.11428571 22.6851769,5.15714286 C22.9144648,5.2 23.1007613,5.25714286 23.2583968,5.32857143 L22.7711599,7.72857143 Z" id="Shape"></path>
                    <path d="M34.450515,10.3142857 C34.450515,11.1428571 34.335871,11.8857143 34.0922526,12.5571429 C33.8486341,13.2285714 33.4903717,13.8 33.0317958,14.2714286 C32.5732199,14.7428571 32,15.1 31.3407971,15.3571429 C30.6672638,15.6142857 29.9077474,15.7428571 29.0479176,15.7428571 C28.6896552,15.7428571 28.3170622,15.7285714 27.9301388,15.7 C27.5432154,15.6714286 27.156292,15.6285714 26.7836991,15.5714286 C26.4111061,15.5142857 26.0528437,15.4571429 25.7089118,15.3857143 C25.3649798,15.3142857 25.0640394,15.2428571 24.8060905,15.1571429 L24.8060905,2.35714286 L27.7438424,0.0571428571 L27.7438424,5.38571429 C28.0734438,5.24285714 28.4173757,5.12857143 28.7756382,5.05714286 C29.1339006,4.97142857 29.5064935,4.94285714 29.9220779,4.94285714 C30.6529333,4.94285714 31.3121361,5.07142857 31.8710255,5.32857143 C32.4299149,5.58571429 32.9028213,5.94285714 33.2897447,6.41428571 C33.6766682,6.88571429 33.9632781,7.45714286 34.1639051,8.11428571 C34.3502015,8.75714286 34.450515,9.5 34.450515,10.3142857 Z M31.4554411,10.2285714 C31.4554411,8.34285714 30.7532468,7.4 29.3631885,7.4 C29.0622481,7.4 28.7613077,7.44285714 28.4603672,7.51428571 C28.1594268,7.6 27.9301388,7.68571429 27.7438424,7.81428571 L27.7438424,13.1428571 C27.8871473,13.1714286 28.0734438,13.1857143 28.3027318,13.2142857 C28.5320197,13.2285714 28.7756382,13.2428571 29.0335871,13.2428571 C29.8360949,13.2428571 30.4379758,12.9714286 30.8535602,12.4142857 C31.2404837,11.8571429 31.4554411,11.1285714 31.4554411,10.2285714 Z" id="Shape"></path>
                    <path d="M39.9534259,4.85714286 C40.8275862,4.85714286 41.5441111,4.95714286 42.1173309,5.15714286 C42.6905508,5.35714286 43.1634572,5.62857143 43.5073892,6 C43.8513211,6.37142857 44.0949395,6.81428571 44.252575,7.34285714 C44.39588,7.87142857 44.4675325,8.45714286 44.4675325,9.08571429 L44.4675325,15.1714286 C44.0519481,15.2571429 43.4643977,15.3714286 42.7192118,15.5 C41.974026,15.6285714 41.0568742,15.6857143 39.9964174,15.6857143 C39.322884,15.6857143 38.7210031,15.6285714 38.1764442,15.5142857 C37.6318854,15.4 37.158979,15.2 36.7720555,14.9285714 C36.3708016,14.6571429 36.0698612,14.3142857 35.8692342,13.8714286 C35.6542768,13.4428571 35.5539633,12.9142857 35.5539633,12.2857143 C35.5539633,11.6857143 35.6686073,11.1714286 35.9122257,10.7571429 C36.1558442,10.3428571 36.4854456,10 36.8866995,9.75714286 C37.2879534,9.51428571 37.7608598,9.32857143 38.2910882,9.21428571 C38.8213166,9.1 39.3658755,9.04285714 39.9247649,9.04285714 C40.3116883,9.04285714 40.6412897,9.05714286 40.9422302,9.08571429 C41.2431706,9.11428571 41.4724586,9.15714286 41.658755,9.21428571 L41.658755,8.94285714 C41.658755,8.44285714 41.5011196,8.04285714 41.2001791,7.74285714 C40.8992387,7.44285714 40.3690103,7.28571429 39.6238245,7.28571429 C39.1222571,7.28571429 38.6350202,7.32857143 38.1477833,7.4 C37.6605464,7.47142857 37.2449619,7.57142857 36.8866995,7.7 L36.5141066,5.34285714 C36.6860725,5.28571429 36.90103,5.22857143 37.158979,5.17142857 C37.4169279,5.11428571 37.6892073,5.05714286 37.9901478,5.01428571 C38.2910882,4.97142857 38.6063592,4.92857143 38.9502911,4.9 C39.2798925,4.88571429 39.609494,4.85714286 39.9534259,4.85714286 Z M40.1970443,13.4285714 C40.4836543,13.4285714 40.7559337,13.4285714 41.0282132,13.4142857 C41.2861621,13.4 41.5011196,13.3857143 41.658755,13.3571429 L41.658755,11.1428571 C41.5441111,11.1142857 41.3578146,11.0857143 41.1285266,11.0571429 C40.8849082,11.0285714 40.6699507,11.0142857 40.4836543,11.0142857 C40.2113748,11.0142857 39.9534259,11.0285714 39.7098074,11.0571429 C39.466189,11.0857143 39.2512315,11.1571429 39.0649351,11.2428571 C38.8786386,11.3285714 38.7353336,11.4571429 38.6350202,11.6142857 C38.5347067,11.7714286 38.4773847,11.9714286 38.4773847,12.2 C38.4773847,12.6571429 38.6350202,12.9714286 38.9359606,13.1571429 C39.2225705,13.3428571 39.6524854,13.4285714 40.1970443,13.4285714 Z" id="Shape"></path>
                    <path d="M49.6838334,13.3714286 C50.2283923,13.3714286 50.6009852,13.3142857 50.8302732,13.2142857 C51.0595611,13.1142857 51.1598746,12.9 51.1598746,12.6 C51.1598746,12.3571429 51.0165696,12.1571429 50.7299597,11.9857143 C50.4433498,11.8142857 49.9991043,11.6142857 49.411554,11.3857143 C48.9529781,11.2142857 48.5373936,11.0428571 48.1648007,10.8571429 C47.7922078,10.6714286 47.4769369,10.4571429 47.2046574,10.2 C46.9467085,9.94285714 46.731751,9.64285714 46.588446,9.28571429 C46.4451411,8.92857143 46.3734886,8.5 46.3734886,8.01428571 C46.3734886,7.04285714 46.731751,6.27142857 47.4626064,5.71428571 C48.1791312,5.15714286 49.182266,4.87142857 50.4433498,4.87142857 C51.0738916,4.87142857 51.6757725,4.92857143 52.2633229,5.04285714 C52.8365428,5.15714286 53.2951187,5.27142857 53.6390506,5.4 L53.1231527,7.68571429 C52.7792208,7.57142857 52.4066279,7.45714286 52.0053739,7.37142857 C51.60412,7.28571429 51.1598746,7.22857143 50.6583072,7.22857143 C49.7411554,7.22857143 49.2825795,7.48571429 49.2825795,8 C49.2825795,8.11428571 49.29691,8.22857143 49.3399015,8.31428571 C49.382893,8.4 49.4545455,8.5 49.5835199,8.58571429 C49.6981639,8.67142857 49.8557994,8.75714286 50.0707568,8.85714286 C50.2713838,8.95714286 50.5293327,9.07142857 50.8446037,9.18571429 C51.489476,9.42857143 52.0197044,9.65714286 52.4352888,9.88571429 C52.8508733,10.1142857 53.1804747,10.3714286 53.4240931,10.6285714 C53.6677116,10.9 53.8396776,11.2 53.939991,11.5142857 C54.0403045,11.8428571 54.083296,12.2142857 54.083296,12.6571429 C54.083296,13.6714286 53.6963726,14.4428571 52.9368562,14.9714286 C52.1630094,15.5 51.0738916,15.7571429 49.6695029,15.7571429 C48.7523511,15.7571429 47.9785043,15.6714286 47.3766234,15.5142857 C46.760412,15.3571429 46.3448276,15.2285714 46.1012091,15.1142857 L46.588446,12.7428571 C47.0900134,12.9428571 47.6059113,13.1 48.1218092,13.2 C48.6520376,13.3142857 49.1679355,13.3714286 49.6838334,13.3714286 Z" id="Shape"></path>
                    <path d="M55.1150918,10.3857143 C55.1150918,9.47142857 55.2583968,8.67142857 55.5450067,7.97142857 C55.8316167,7.28571429 56.2042096,6.71428571 56.6627855,6.25714286 C57.1213614,5.8 57.6515898,5.45714286 58.2534707,5.21428571 C58.8553515,4.97142857 59.4715629,4.85714286 60.1021048,4.85714286 C61.578146,4.85714286 62.7389163,5.3 63.5987461,6.2 C64.4585759,7.1 64.8741603,8.41428571 64.8741603,10.1571429 C64.8741603,10.3285714 64.8741603,10.5142857 64.8598298,10.7142857 C64.8454993,10.9142857 64.8311688,11.1 64.8168383,11.2571429 L58.1531572,11.2571429 C58.2248097,11.8571429 58.4970891,12.3428571 58.9986565,12.6857143 C59.5002239,13.0428571 60.1737573,13.2142857 61.0049261,13.2142857 C61.549485,13.2142857 62.0797134,13.1714286 62.5956113,13.0714286 C63.1115092,12.9714286 63.5414241,12.8571429 63.8710255,12.7142857 L64.2722794,15.0857143 C64.114644,15.1714286 63.8996865,15.2428571 63.6417376,15.3285714 C63.3837886,15.4142857 63.0828482,15.4714286 62.7675773,15.5285714 C62.4523063,15.5857143 62.0940439,15.6428571 61.7357815,15.6714286 C61.3631885,15.7142857 61.0049261,15.7285714 60.6323332,15.7285714 C59.7008509,15.7285714 58.8840125,15.5857143 58.1961487,15.3142857 C57.5082848,15.0428571 56.9350649,14.6571429 56.476489,14.1857143 C56.0179131,13.7142857 55.6883117,13.1428571 55.4733542,12.4857143 C55.2154053,11.8571429 55.1150918,11.1428571 55.1150918,10.3857143 Z M62.0080609,9.27142857 C61.9937304,9.02857143 61.9507389,8.78571429 61.8790864,8.54285714 C61.8074339,8.3 61.69279,8.1 61.549485,7.91428571 C61.3918495,7.72857143 61.2055531,7.58571429 60.9762651,7.45714286 C60.7469772,7.34285714 60.4603672,7.28571429 60.1164353,7.28571429 C59.7868339,7.28571429 59.5002239,7.34285714 59.270936,7.45714286 C59.0273175,7.57142857 58.841021,7.71428571 58.6833856,7.9 C58.5257501,8.08571429 58.4111061,8.3 58.3251232,8.54285714 C58.2391402,8.78571429 58.1818182,9.02857143 58.1388267,9.28571429 L62.0080609,9.28571429 L62.0080609,9.27142857 Z" id="Shape"></path>
                </g>
                <path d="M9.32915361,23.9142857 L0.128974474,16.1857143 L0.128974474,2.64285714 L9.40080609,10.4285714 L22.5848634,0.0857142857 L22.5991939,13.5 L9.32915361,23.9142857 Z M9.40080609,19.2285714 L18.9449172,11.7428571 L18.9449172,7.58571429 L9.32915361,15.1285714 L3.78325123,10.4714286 L3.78325123,14.5 L9.40080609,19.2285714 Z" id="Shape" fill="#FF6448"></path>
            </g>
        </g>
    </g>
</svg>