<?xml version="1.0" encoding="UTF-8"?>
<svg width="14px" height="16px" viewBox="0 0 14 16" version="1.1" xmlns="http://www.w3.org/2000/svg" xmlns:xlink="http://www.w3.org/1999/xlink">
    <!-- Generator: Sketch 61.1 (89650) - https://sketch.com -->
    <title>Group 38</title>
    <desc>Created with Sketch.</desc>
    <g id="Page-1" stroke="none" stroke-width="1" fill="none" fill-rule="evenodd">
        <g id="5-Approval-&gt;-Signed-Out" transform="translate(-463.000000, -393.000000)">
            <g id="Group-25" transform="translate(294.000000, 126.000000)">
                <g id="Group-42" transform="translate(16.000000, 77.000000)">
                    <g id="Group-13" transform="translate(1.000000, 0.000000)">
                        <g id="Group-46" transform="translate(16.000000, 190.000000)">
                            <g id="Group-39" transform="translate(135.000000, 0.000000)">
                                <g id="Group-38">
                                    <rect id="Rectangle-15" fill="#D8D8D8" opacity="0" x="0" y="0" width="16" height="16"></rect>
                                    <g id="Page-1" transform="translate(1.000000, 0.000000)" fill="#26C281">
                                        <path d="M9.17640678,0 L8.54711864,0.0117333333 L1.82332203,0.0117333333 C0.936101695,0.0117333333 0.217830508,0.657493333 0.217830508,1.45408 L0.217830508,14.55744 C0.217830508,15.35424 0.936101695,16 1.82332203,16 L12.176678,16 C13.0638983,16 13.7821695,15.35424 13.7821695,14.55744 L13.7821695,4.79744 L13.7831186,4.23168 L9.17640678,0 Z M12.3546441,14.55744 C12.3546441,14.64576 12.2742034,14.71744 12.1757288,14.71744 L1.82332203,14.71744 C1.72413559,14.71744 1.64440678,14.64576 1.64440678,14.55744 L1.64440678,1.45408 C1.64440678,1.36661333 1.72413559,1.29493333 1.82332203,1.29493333 L8.54711864,1.29493333 L8.54711864,4.79744 L12.3546441,4.79744 L12.3546441,14.55744 Z" id="Fill-1"></path>
                                        <polygon id="Fill-2" points="8.60454237 12.8450133 10.573322 12.8450133 7.98427119 9.40672 10.1367119 6.54826667 8.16698305 6.54826667 7 8.0992 5.8320678 6.54826667 3.86233898 6.54826667 6.01477966 9.40672 3.4259661 12.8450133 7.70545763 12.8450133 7.00925424 11.8282667 6.16023729 11.8282667 7 10.71424"></polygon>
                                    </g>
                                </g>
                            </g>
                        </g>
                    </g>
                </g>
            </g>
        </g>
    </g>
</svg>