<?xml version="1.0" encoding="UTF-8"?>
<svg width="9px" height="12px" viewBox="0 0 9 12" version="1.1" xmlns="http://www.w3.org/2000/svg" xmlns:xlink="http://www.w3.org/1999/xlink">
    <!-- Generator: Sketch 61.1 (89650) - https://sketch.com -->
    <title>Page 1</title>
    <desc>Created with Sketch.</desc>
    <g id="Page-1" stroke="none" stroke-width="1" fill="none" fill-rule="evenodd">
        <g id="5-Approval-&gt;-Signed-Out" transform="translate(-294.000000, -97.000000)" fill="#FFA03D">
            <g id="Group-4" transform="translate(294.000000, 96.000000)">
                <g id="Group-2">
                    <path d="M7.78384297,6.04799724 L7.53929759,6.04799724 L7.53929759,3.875 C7.53929759,2.2902279 6.17641333,1 4.50036499,1 C2.82504664,1 1.4614324,2.28953729 1.4614324,3.875 L1.4614324,6.04799724 L1.21688701,6.04799724 C0.5452997,6.04799724 0,6.56336326 0,7.19924033 L0,11.8487569 C0,12.4848066 0.544569714,13 1.21688701,13 L7.78311299,13 C8.4547003,13 9,12.4848066 9,11.8487569 L9,7.19854972 C9,6.56336326 8.45543029,6.04799724 7.78384297,6.04799724 Z M2.4195393,3.875 C2.4195393,2.78919199 3.35264417,1.90642265 4.50036499,1.90642265 C5.64808581,1.90642265 6.58119069,2.78919199 6.58119069,3.875 L6.58119069,6.04799724 L2.4195393,6.04799724 L2.4195393,3.875 Z M4.50036499,10.781768 C3.84173493,10.781768 3.30702003,10.2765884 3.30702003,9.65279696 C3.30702003,9.02969613 3.84100495,8.52382597 4.50036499,8.52382597 C5.15899505,8.52382597 5.69370995,9.02900552 5.69370995,9.65279696 C5.69370995,10.2765884 5.15899505,10.781768 4.50036499,10.781768 Z" id="Page-1"></path>
                </g>
            </g>
        </g>
    </g>
</svg>