<?xml version="1.0" encoding="UTF-8"?>
<svg width="20px" height="20px" viewBox="0 0 20 20" version="1.1" xmlns="http://www.w3.org/2000/svg" xmlns:xlink="http://www.w3.org/1999/xlink">
    <!-- Generator: Sketch 61.1 (89650) - https://sketch.com -->
    <title>Group 16</title>
    <desc>Created with Sketch.</desc>
    <g id="Page-1" stroke="none" stroke-width="1" fill="none" fill-rule="evenodd">
        <g id="5-Approval-&gt;-Signed-Out" transform="translate(-1110.000000, -380.000000)" fill="#FFFFFF">
            <g id="Group-25" transform="translate(294.000000, 126.000000)">
                <g id="Group-53" transform="translate(522.000000, 78.000000)">
                    <g id="Group-45" transform="translate(0.000000, 143.000000)">
                        <g id="Group-40" transform="translate(0.000000, 29.000000)">
                            <g id="Group-16" transform="translate(294.000000, 4.000000)">
                                <rect id="Rectangle-8" stroke-opacity="0.1" stroke="#222222" x="0.5" y="0.5" width="19" height="19" rx="9.5"></rect>
                                <path d="M13.7342597,6.11817405 C13.5801454,5.96060865 13.3280555,5.96060865 13.1744758,6.11817405 L8.20859904,11.2002052 C8.0544847,11.3579073 7.80239481,11.3579073 7.64881513,11.2002052 L6.42552421,9.94898273 C6.27154354,9.79141734 6.01931999,9.79141734 5.8657403,9.94898273 L5.11548551,10.7172508 C4.96150483,10.8748162 4.96150483,11.1329116 5.11548551,11.2900667 L7.64881513,13.881826 C7.80292946,14.0393913 8.05501935,14.0393913 8.20859904,13.881826 L14.4845145,7.45871089 C14.6384952,7.30114549 14.6384952,7.04305009 14.4845145,6.88534792 L13.7342597,6.11817405 Z" id="Page-1"></path>
                            </g>
                        </g>
                    </g>
                </g>
            </g>
        </g>
    </g>
</svg>